<svg aria-hidden="true" style="position: absolute; width: 0; height: 0; overflow: hidden;" version="1.1" xmlns="http://www.w3.org/2000/svg" xmlns:xlink="http://www.w3.org/1999/xlink">
<defs>
<symbol id="icon-phone" viewBox="0 0 32 32">
<path fill="none" stroke="currentColor" style="stroke: currentColor" stroke-linejoin="miter" stroke-linecap="butt" stroke-miterlimit="4" stroke-width="2" d="M16 1c8.284 0 15 6.716 15 15s-6.716 15-15 15c-8.284 0-15-6.716-15-15s6.716-15 15-15z"></path>
<path fill="currentColor" style="fill: currentColor" d="M22.625 23.5c-1.736 0-3.451-0.378-5.146-1.135s-3.236-1.83-4.625-3.219-2.462-2.93-3.219-4.625c-0.757-1.694-1.135-3.41-1.135-5.146 0-0.25 0.083-0.458 0.25-0.625s0.375-0.25 0.625-0.25h3.375c0.194 0 0.368 0.066 0.521 0.198s0.243 0.288 0.271 0.469l0.542 2.917c0.028 0.222 0.021 0.41-0.021 0.563s-0.118 0.285-0.229 0.396l-2.021 2.042c0.278 0.514 0.608 1.011 0.99 1.49s0.802 0.941 1.26 1.385c0.431 0.431 0.882 0.83 1.354 1.198s0.972 0.705 1.5 1.011l1.958-1.958c0.125-0.125 0.288-0.219 0.49-0.281s0.399-0.080 0.594-0.052l2.875 0.583c0.195 0.056 0.354 0.156 0.479 0.302s0.188 0.309 0.188 0.49v3.375c0 0.25-0.083 0.458-0.25 0.625s-0.375 0.25-0.625 0.25zM11.021 13.5l1.375-1.375-0.354-1.958h-1.854c0.069 0.569 0.167 1.132 0.292 1.688s0.306 1.104 0.542 1.646zM18.479 20.958c0.542 0.236 1.094 0.424 1.656 0.563s1.128 0.229 1.698 0.271v-1.833l-1.958-0.396-1.396 1.396z"></path>
</symbol>
<symbol id="icon-achievement" viewBox="0 0 32 32">
<path d="M18.189 22.976l2.402-1.917c0.16-0.16 0.214-0.373 0.16-0.586s-0.267-0.373-0.48-0.373l-2.883-0.107-0.908-2.716c-0.053-0.213-0.267-0.373-0.48-0.373s-0.427 0.16-0.48 0.373l-0.908 2.716-2.883 0.107c-0.267 0-0.427 0.16-0.534 0.373s0 0.426 0.16 0.586l2.402 1.917-0.961 2.822c-0.053 0.213 0 0.426 0.214 0.586s0.48 0.16 0.641 0l2.349-1.864 2.349 1.864c0.107 0.053 0.214 0.107 0.32 0.107s0.214-0.053 0.267-0.107c0.214-0.107 0.267-0.373 0.214-0.586l-0.961-2.822zM16.32 23.402c-0.107-0.053-0.214-0.107-0.32-0.107s-0.214 0.053-0.32 0.107l-1.281 1.012 0.48-1.491c0.107-0.213 0-0.426-0.16-0.586l-1.548-1.225 1.815-0.107c0.214 0 0.427-0.16 0.48-0.373l0.534-1.544 0.534 1.544c0.053 0.213 0.267 0.373 0.48 0.373l1.815 0.107-1.548 1.225c-0.16 0.16-0.214 0.373-0.16 0.586l0.48 1.491-1.281-1.012z"></path>
<path d="M6.983 20.419c0.016 0 0.032 0.001 0.047 0.001 0.641 0 1.281-0.213 1.869-0.479 0.854-0.532 1.441-1.331 1.708-2.29l0.534-2.077c0.053-0.16 0-0.319-0.053-0.426-0.053-0.16-0.16-0.213-0.32-0.266-0.961-0.266-1.975-0.107-2.83 0.373-0.808 0.504-1.377 1.247-1.662 2.137-0.026-0.28-0.041-0.549-0.046-0.806-0.040-1.131 0.104-2.246 0.414-3.302l1.722 0.586c0.427 0.16 0.801 0.213 1.228 0.213 0.587 0 1.121-0.16 1.655-0.373 0.854-0.426 1.548-1.171 1.869-2.13 0.107-0.319-0.053-0.586-0.32-0.692l-2.029-0.692c-0.924-0.298-1.876-0.223-2.735 0.175 0.405-0.585 0.873-1.126 1.401-1.613 0.214-0.213 0.214-0.533 0-0.746s-0.534-0.213-0.747 0c-0.243 0.226-0.474 0.463-0.694 0.708v-0.549c0-2.077-1.655-3.728-3.737-3.728-0.32 0-0.534 0.213-0.534 0.532v2.13c0 1.769 1.201 3.228 2.844 3.622-0.45 0.811-0.801 1.679-1.046 2.585l-0.090-0.349c-0.534-1.97-2.563-3.195-4.538-2.716-0.107 0.053-0.267 0.16-0.32 0.266-0.053 0.16-0.053 0.266-0.053 0.426l0.534 2.077c0.427 1.704 1.975 2.822 3.63 2.822 0.136 0 0.286-0.014 0.443-0.042-0.015 0.279-0.021 0.559-0.016 0.841 0.014 0.351 0.043 0.724 0.093 1.118-0.534-0.667-1.287-1.093-2.121-1.278-1.014-0.213-1.975 0-2.83 0.532-0.267 0.16-0.32 0.479-0.16 0.746l1.175 1.757c0.534 0.852 1.388 1.385 2.349 1.598 0.267 0.053 0.481 0.053 0.747 0.053 0.568 0 1.105-0.123 1.612-0.346 0.283 0.739 0.651 1.508 1.127 2.296-1.771-0.823-3.906-0.166-4.874 1.512-0.053 0.16-0.107 0.266-0.053 0.426 0.053 0.107 0.16 0.266 0.267 0.32l1.869 1.065c0.587 0.32 1.228 0.479 1.869 0.479 0.32 0 0.641-0.053 0.961-0.106 0.754-0.198 1.389-0.602 1.864-1.146 0.534 0.594 1.137 1.191 1.82 1.785 0.107 0.053 0.267 0.106 0.374 0.106 0.16 0 0.32-0.053 0.427-0.213 0.214-0.213 0.16-0.533-0.053-0.746-2.481-2.108-3.855-4.251-4.586-6.178zM7.244 17.864c0.16-0.692 0.587-1.278 1.228-1.651 0.48-0.266 0.961-0.426 1.495-0.373l-0.374 1.491c-0.16 0.692-0.587 1.278-1.228 1.651-0.481 0.266-0.961 0.373-1.495 0.373l0.374-1.491zM4.788 7.107v-1.544c1.228 0.266 2.136 1.331 2.136 2.609v1.544c-1.228-0.266-2.136-1.331-2.136-2.609zM2.065 12.752l-0.374-1.491c1.228-0.053 2.402 0.746 2.723 2.024l0.374 1.491c-1.228 0.053-2.402-0.799-2.723-2.024zM3.827 20.047c-0.694-0.107-1.335-0.532-1.708-1.118l-0.854-1.278c0.48-0.213 1.014-0.266 1.548-0.16 0.694 0.107 1.335 0.532 1.708 1.118l0.854 1.278c-0.481 0.213-1.014 0.266-1.548 0.16zM6.87 25.745c-0.694 0.16-1.388 0.107-2.029-0.266l-1.335-0.745c0.854-0.959 2.242-1.172 3.31-0.586l1.335 0.799c-0.32 0.373-0.747 0.639-1.281 0.799zM10.448 11.207l1.441 0.479c-0.267 0.479-0.641 0.852-1.121 1.065-0.641 0.266-1.335 0.319-2.029 0.107l-1.495-0.533c0.747-0.905 1.922-1.598 3.203-1.118z"></path>
<path d="M31.75 16.958c-0.854-0.532-1.869-0.746-2.83-0.532-0.817 0.181-1.556 0.594-2.088 1.237 0.034-0.339 0.053-0.663 0.059-0.971 0.005-0.296-0.002-0.591-0.018-0.884 0.144 0.019 0.288 0.032 0.445 0.032 0.694 0 1.335-0.16 1.922-0.479 0.854-0.533 1.495-1.331 1.708-2.29l0.534-2.077c0.053-0.16 0-0.319-0.053-0.426-0.054-0.16-0.16-0.213-0.32-0.266-2.029-0.479-4.058 0.746-4.538 2.716l-0.090 0.349c-0.249-0.923-0.609-1.807-1.072-2.632 1.656-0.384 2.87-1.849 2.87-3.628v-2.13c0-0.319-0.214-0.532-0.534-0.532-2.082 0-3.737 1.651-3.737 3.728v0.602c-0.22-0.246-0.451-0.482-0.694-0.708-0.213-0.213-0.534-0.213-0.747 0s-0.214 0.533 0 0.746c0.485 0.459 0.921 0.968 1.304 1.516-0.834-0.36-1.749-0.418-2.638-0.132l-2.029 0.692c-0.267 0.107-0.427 0.426-0.32 0.692 0.32 0.905 0.961 1.704 1.869 2.13 0.534 0.266 1.068 0.373 1.655 0.373 0.427 0 0.801-0.107 1.228-0.16l1.687-0.575c0.313 1.053 0.468 2.164 0.448 3.291-0.006 0.282-0.024 0.581-0.056 0.894-0.216-0.954-0.855-1.801-1.706-2.279-0.854-0.479-1.869-0.639-2.83-0.373-0.107 0.053-0.267 0.16-0.32 0.266-0.053 0.16-0.107 0.266-0.053 0.426l0.534 2.077c0.427 1.651 1.975 2.769 3.63 2.769 0.020 0 0.040-0.001 0.059-0.001-0.462 1.233-1.187 2.559-2.294 3.907-0.106 0.049-0.157 0.128-0.199 0.238-0.593 0.695-1.289 1.393-2.105 2.087-0.214 0.16-0.267 0.533-0.053 0.745 0.107 0.107 0.267 0.16 0.427 0.16 0.107 0 0.267-0.053 0.374-0.053 0.701-0.602 1.32-1.208 1.866-1.812 0.725 0.78 1.752 1.226 2.779 1.226 0.641 0 1.281-0.16 1.869-0.479l1.869-1.065c0.16-0.053 0.214-0.16 0.267-0.32s0-0.32-0.053-0.426c-0.998-1.693-3.070-2.315-4.776-1.561 0.458-0.769 0.814-1.521 1.086-2.246 0.504 0.23 1.044 0.346 1.554 0.346 1.175 0 2.402-0.586 3.097-1.704l1.174-1.757c0.16-0.266 0.107-0.586-0.16-0.745zM27.585 13.284c0.32-1.225 1.495-2.077 2.723-2.024l-0.374 1.491c-0.214 0.692-0.641 1.278-1.228 1.651-0.48 0.266-0.961 0.373-1.495 0.373l0.374-1.491zM25.076 8.172c0-1.278 0.908-2.343 2.136-2.609v1.544c0 1.278-0.908 2.343-2.136 2.609v-1.544zM23.261 12.858c-0.641 0.266-1.388 0.213-2.029-0.107-0.48-0.266-0.854-0.639-1.121-1.065l1.442-0.533c1.281-0.426 2.456 0.213 3.203 1.171l-1.495 0.533zM23.581 18.982c-0.587-0.373-1.068-0.959-1.228-1.651l-0.374-1.491c0.534 0 1.068 0.107 1.495 0.373 0.587 0.373 1.068 0.959 1.228 1.651l0.374 1.491c-0.534 0-1.014-0.106-1.495-0.373zM28.44 24.733l-1.335 0.746c-1.068 0.639-2.509 0.373-3.31-0.532l1.335-0.746c1.068-0.639 2.509-0.373 3.31 0.532zM29.828 18.929c-0.694 1.065-2.029 1.491-3.203 1.012l0.801-1.331c0.427-0.586 1.014-0.959 1.709-1.118 0.534-0.107 1.068-0.053 1.548 0.16l-0.854 1.278z"></path>
</symbol>
<symbol id="icon-masks" viewBox="0 0 32 32">
<path d="M11.533 11.962c0.053 0 0.107 0 0.107 0 0.213 0 0.48-0.213 0.48-0.479 0.16-0.959 0.533-1.438 1.279-1.651s1.332 0.053 1.919 0.799c0.16 0.266 0.533 0.266 0.746 0.107 0.267-0.16 0.267-0.533 0.107-0.746-0.853-1.065-1.919-1.491-3.038-1.172s-1.812 1.172-2.025 2.557c-0.053 0.266 0.16 0.533 0.426 0.586z"></path>
<path d="M9.134 12.282c0.16 0.266 0.533 0.266 0.746 0.107 0.267-0.16 0.267-0.533 0.107-0.746-0.853-1.065-1.919-1.491-3.038-1.172s-1.812 1.172-2.025 2.557c-0.053 0.266 0.16 0.533 0.426 0.586 0.053 0 0.107 0 0.107 0 0.213 0 0.48-0.213 0.48-0.479 0.16-0.959 0.533-1.438 1.279-1.651s1.332 0.053 1.919 0.799z"></path>
<path d="M16.436 15.371c0.107-0.266-0.053-0.586-0.32-0.692s-0.586 0.053-0.693 0.32c-0.533 1.385-1.706 2.45-3.198 2.823-1.492 0.426-2.985 0.107-4.211-0.852-0.213-0.16-0.586-0.107-0.746 0.107s-0.107 0.586 0.107 0.746c1.066 0.852 2.345 1.278 3.624 1.278 0.48 0 1.013-0.053 1.492-0.266 1.812-0.479 3.251-1.758 3.944-3.462z"></path>
<path d="M27.309 18.567c-0.213-0.16-0.586-0.107-0.746 0.107-0.586 0.746-1.172 1.012-1.919 0.799-0.746-0.16-1.119-0.692-1.279-1.651 0-0.266-0.32-0.479-0.586-0.426-0.267 0-0.48 0.32-0.426 0.586 0.213 1.332 0.906 2.184 2.025 2.503 0.267 0.053 0.533 0.107 0.746 0.107 0.853 0 1.599-0.426 2.292-1.278 0.16-0.213 0.107-0.586-0.107-0.746z"></path>
<path d="M20.487 22.775c-1.759-0.479-3.624-0.107-5.117 1.065-0.267 0.16-0.267 0.533-0.107 0.746 0.16 0.266 0.533 0.266 0.746 0.107 1.226-0.959 2.718-1.225 4.211-0.852 1.439 0.373 2.612 1.385 3.198 2.823 0.053 0.213 0.267 0.32 0.48 0.32 0.053 0 0.16-0.053 0.213-0.053 0.32-0.107 0.426-0.426 0.32-0.692-0.693-1.705-2.132-2.983-3.944-3.462z"></path>
<path d="M31.84 14.306c-0.16-0.16-0.373-0.213-0.533-0.16l-1.066 0.266c-3.409 0.877-7.019 0.504-10.198-1.022 0.015-0.821-0.082-1.659-0.302-2.493l-2.132-8.256c-0.053-0.16-0.213-0.32-0.373-0.373-0.213-0.053-0.373 0-0.533 0.107l-1.279 1.225c-3.411 3.302-8.368 4.634-13.005 3.462l-1.706-0.426c-0.213-0.053-0.426 0-0.533 0.16-0.16 0.16-0.213 0.373-0.16 0.533l2.239 8.256c1.066 4.048 4.744 6.711 8.741 6.711 0.374 0 0.736-0.024 1.097-0.071 0.614 3.471 3.14 6.298 6.578 7.208 0.746 0.213 1.546 0.319 2.345 0.319 1.599 0 3.145-0.426 4.584-1.172 2.079-1.172 3.571-3.142 4.211-5.486l2.185-8.256c0-0.213-0.053-0.373-0.16-0.533zM3.271 15.318l-1.972-7.35 0.853 0.16c5.010 1.278 10.34-0.16 14.018-3.728l0.586-0.586 1.972 7.35c0.203 0.773 0.286 1.552 0.262 2.315-0.031 0.061-0.049 0.125-0.049 0.189-0.213 3.462-2.558 6.391-5.916 7.297-0.16 0.053-0.373 0.053-0.586 0.107-0.057 0.011-0.11 0.033-0.16 0.061-4.004 0.631-7.958-1.818-9.008-5.813zM28.749 22.775c-0.533 2.077-1.866 3.782-3.731 4.847s-3.997 1.332-6.076 0.799c-3.038-0.852-5.277-3.302-5.81-6.391 0.001-0 0.001-0 0.002-0 0.070-0 0.117-0.024 0.156-0.039 0.018-0.005 0.037-0.009 0.055-0.014 1.965-0.524 3.608-1.665 4.776-3.162 0.023 0.007 0.048 0.013 0.075 0.020 0.267 0.053 0.533 0.107 0.746 0.107 0.853 0 1.599-0.426 2.292-1.278 0.16-0.213 0.107-0.586-0.107-0.746s-0.586-0.107-0.746 0.107c-0.506 0.644-1.013 0.93-1.622 0.859 0.546-0.915 0.932-1.925 1.131-2.986 0.009-0.049 0.018-0.098 0.026-0.147 0.004-0.022 0.007-0.043 0.011-0.065 0.009-0.055 0.019-0.109 0.027-0.164 3.305 1.545 7.036 1.864 10.553 0.959l0.213-0.053-1.972 7.35z"></path>
</symbol>
<symbol id="icon-wheel" viewBox="0 0 32 32">
<path d="M22.112 14.837c0-2.558-2.094-4.651-4.653-4.651s-4.653 2.093-4.653 4.651c0 2.558 2.094 4.651 4.653 4.651s4.653-2.093 4.653-4.651zM17.458 18.326c-1.92 0-3.49-1.57-3.49-3.488s1.571-3.488 3.49-3.488c1.92 0 3.49 1.57 3.49 3.488s-1.571 3.488-3.49 3.488z"></path>
<path d="M17.458 12.512c-1.28 0-2.327 1.047-2.327 2.326s1.047 2.326 2.327 2.326c1.28 0 2.327-1.047 2.327-2.326s-1.047-2.326-2.327-2.326zM17.458 16c-0.64 0-1.163-0.523-1.163-1.163s0.523-1.163 1.163-1.163c0.64 0 1.163 0.523 1.163 1.163s-0.523 1.163-1.163 1.163z"></path>
<path d="M21.53 19.663c-0.233-0.174-0.523-0.233-0.756-0.058-0.698 0.465-1.454 0.756-2.268 0.93-0.291 0.058-0.465 0.291-0.465 0.581v5.291c0 0.116 0.058 0.291 0.175 0.407s0.291 0.174 0.407 0.174c2.443-0.233 4.712-1.163 6.573-2.733 0.175-0.116 0.233-0.233 0.233-0.407s-0.058-0.349-0.175-0.465l-3.723-3.721zM19.203 21.582c0.627-0.171 1.198-0.398 1.823-0.736l1.26 1.259c-0.931 0.64-1.978 1.047-3.083 1.279v-1.802zM19.203 25.709v-1.165c1.416-0.218 2.779-0.779 3.963-1.618l0.807 0.807c-1.454 1.047-3.025 1.686-4.77 1.977z"></path>
<path d="M29.033 15.419h-5.293c-0.291 0-0.523 0.174-0.582 0.465-0.116 0.814-0.465 1.57-0.931 2.267-0.175 0.233-0.116 0.581 0.058 0.756l3.781 3.721c0.116 0.116 0.233 0.174 0.407 0.174s0.291-0.116 0.407-0.233c1.571-1.861 2.501-4.128 2.734-6.512 0-0.174-0.116-0.349-0.175-0.465s-0.233-0.174-0.407-0.174zM24.206 16.581h1.803c-0.233 1.105-0.64 2.151-1.28 3.081l-1.28-1.279c0.349-0.581 0.582-1.163 0.756-1.802zM26.358 21.291l-0.807-0.807c0.841-1.183 1.405-2.545 1.663-3.961h1.122c-0.291 1.744-0.931 3.372-1.978 4.768z"></path>
<path d="M12.688 18.151c-0.465-0.698-0.756-1.454-0.931-2.267-0.058-0.291-0.291-0.465-0.582-0.465h-5.293c-0.175 0-0.349 0.058-0.465 0.174s-0.175 0.291-0.175 0.465c0.233 2.384 1.221 4.651 2.734 6.512 0.116 0.174 0.291 0.233 0.465 0.233s0.349-0.058 0.465-0.174l3.723-3.721c0.175-0.233 0.233-0.523 0.058-0.756zM10.187 19.663c-0.629-0.914-1.032-1.94-1.267-3.023h1.732c0.175 0.64 0.407 1.221 0.756 1.802l-1.222 1.221zM8.5 21.349c-1.035-1.437-1.672-2.989-1.967-4.709h1.191c0.267 1.374 0.824 2.694 1.642 3.845l-0.865 0.865z"></path>
<path d="M17.458 0.302c-8.027 0-14.542 6.512-14.542 14.535 0 5.075 2.607 9.545 6.555 12.145-0.13 0.142-0.259 0.284-0.389 0.413-0.465 0.523-0.931 1.047-1.396 1.512-2.152 2.093-4.421 2.093-6.747 0-0.233-0.174-0.582-0.174-0.814 0.058-0.175 0.233-0.175 0.581 0.058 0.814 1.396 1.279 2.85 1.919 4.246 1.919 1.454 0 2.85-0.64 4.13-1.977 0.465-0.465 0.931-0.988 1.454-1.57 0.139-0.174 0.3-0.369 0.469-0.56 2.072 1.135 4.449 1.781 6.977 1.781 8.027 0 14.542-6.512 14.542-14.535s-6.515-14.535-14.542-14.535zM17.458 28.21c-2.427 0-4.703-0.646-6.665-1.776-0.008-0.009-0.016-0.018-0.024-0.026-0.053-0.040-0.112-0.070-0.174-0.091-3.902-2.336-6.515-6.603-6.515-11.479 0-7.384 5.991-13.372 13.378-13.372s13.378 5.989 13.378 13.372c0 7.384-5.991 13.372-13.378 13.372z"></path>
<path d="M13.386 10.011c0.116 0.116 0.233 0.174 0.407 0.174 0.116 0 0.233-0.058 0.349-0.116 0.698-0.465 1.454-0.756 2.268-0.93 0.291-0.058 0.465-0.291 0.465-0.581v-5.291c0-0.174-0.058-0.349-0.175-0.407-0.116-0.116-0.291-0.174-0.465-0.174-2.385 0.233-4.653 1.221-6.515 2.733-0.175 0.116-0.233 0.233-0.233 0.407s0.058 0.349 0.175 0.465l3.723 3.721zM15.713 8.035c-0.698 0.174-1.28 0.407-1.861 0.756l-1.222-1.221c0.931-0.64 1.978-1.047 3.083-1.279v1.744zM15.713 3.907v1.187c-1.425 0.259-2.764 0.812-3.929 1.63l-0.841-0.841c1.454-0.988 3.083-1.686 4.77-1.977z"></path>
<path d="M5.883 14.256h5.293c0.291 0 0.524-0.174 0.582-0.407 0.175-0.814 0.465-1.57 0.931-2.267 0.079-0.105 0.11-0.234 0.104-0.36 0.008-0.172-0.055-0.347-0.163-0.454l-3.723-3.721c-0.116-0.116-0.291-0.174-0.465-0.174s-0.291 0.116-0.407 0.233c-1.571 1.861-2.501 4.128-2.734 6.512 0 0.174 0.116 0.349 0.175 0.465s0.233 0.174 0.407 0.174zM8.908 13.093c0.23-1.091 0.63-2.125 1.256-3.047l1.245 1.244c-0.349 0.523-0.582 1.163-0.756 1.802h-1.745zM8.5 8.383l0.85 0.85c-0.775 1.157-1.321 2.482-1.58 3.859h-1.249c0.291-1.686 0.989-3.314 1.978-4.709z"></path>
<path d="M18.505 9.139c0.814 0.116 1.571 0.465 2.268 0.93 0.116 0.058 0.233 0.116 0.349 0.116s0.291-0.058 0.407-0.174l2.094-2.035c0.049-0.049 0.087-0.108 0.115-0.173l1.514-1.513c0.116-0.116 0.233-0.291 0.175-0.465s-0.116-0.291-0.233-0.407c-1.861-1.57-4.13-2.5-6.515-2.733-0.175 0-0.349 0.058-0.465 0.174-0.116 0.058-0.175 0.233-0.175 0.407v5.291c0 0.291 0.175 0.523 0.465 0.581zM19.203 8.093h0.058v-1.802c1.105 0.233 2.152 0.64 3.083 1.279l-1.28 1.279c-0.582-0.349-1.222-0.581-1.861-0.756zM23.973 5.942l-0.847 0.847c-1.199-0.819-2.536-1.373-3.922-1.634v-1.19c1.745 0.291 3.374 0.93 4.77 1.977z"></path>
<path d="M22.286 10.767c-0.175 0.233-0.175 0.523-0.058 0.756 0.465 0.698 0.756 1.454 0.931 2.267 0.058 0.291 0.291 0.465 0.582 0.465h5.293c0.175 0 0.291-0.058 0.407-0.174s0.175-0.291 0.175-0.465c-0.291-2.384-1.221-4.651-2.734-6.512-0.116-0.174-0.233-0.233-0.407-0.233s-0.349 0.058-0.465 0.174l-3.723 3.721zM24.206 13.093c-0.171-0.627-0.399-1.198-0.736-1.822l1.26-1.259c0.64 0.93 1.047 1.977 1.28 3.081h-1.803zM26.358 8.325c1.047 1.395 1.687 3.023 1.978 4.768h-1.166c-0.218-1.415-0.779-2.778-1.619-3.961l0.807-0.807z"></path>
<path d="M16.469 20.535c-0.814-0.174-1.571-0.465-2.268-0.93-0.105-0.079-0.234-0.11-0.36-0.104-0.172-0.008-0.347 0.055-0.455 0.163l-3.723 3.721c-0.116 0.116-0.175 0.291-0.175 0.465s0.116 0.291 0.233 0.407c1.861 1.57 4.13 2.5 6.573 2.733 0.175 0 0.291-0.058 0.407-0.174 0.116-0.058 0.175-0.233 0.175-0.407v-2.048c0.038-0.078 0.058-0.177 0.058-0.278v-2.965c-0-0.291-0.175-0.523-0.465-0.581zM12.685 22.141l1.283-1.257c0.564 0.338 1.128 0.567 1.745 0.739v1.735c-0.047-0.002-0.094-0.004-0.14-0.005-1.032-0.232-2.011-0.62-2.888-1.212zM11.852 22.957c0.475 0.333 0.978 0.623 1.502 0.866-0.405 0.181-0.811 0.415-1.216 0.703-0.393-0.218-0.773-0.463-1.136-0.735l0.851-0.834zM13.391 25.116c0.712-0.391 1.419-0.585 2.11-0.58 0.090 0.019 0.18 0.036 0.27 0.053v1.179c-0.823-0.137-1.62-0.353-2.38-0.652z"></path>
</symbol>
<symbol id="icon-logo" viewBox="0 0 180 32">
<path fill="currentColor" style="fill: currentColor" d="M50.71 1.127c0 0.622-0.503 1.127-1.124 1.127s-1.124-0.504-1.124-1.127c0-0.622 0.503-1.127 1.124-1.127s1.124 0.504 1.124 1.127z"></path>
<path fill="currentColor" style="fill: currentColor" d="M50.71 30.873c0-0.622-0.503-1.127-1.124-1.127s-1.124 0.504-1.124 1.127c0 0.622 0.503 1.127 1.124 1.127s1.124-0.504 1.124-1.127z"></path>
<path fill="currentColor" style="fill: currentColor" d="M135.226 1.127c0 0.622-0.503 1.127-1.124 1.127s-1.124-0.504-1.124-1.127 0.503-1.127 1.124-1.127c0.621 0 1.124 0.504 1.124 1.127z"></path>
<path fill="currentColor" style="fill: currentColor" d="M135.226 30.873c0-0.622-0.503-1.127-1.124-1.127s-1.124 0.504-1.124 1.127 0.503 1.127 1.124 1.127c0.621 0 1.124-0.504 1.124-1.127z"></path>
<path fill="currentColor" style="fill: currentColor" d="M137.475 11.855c-0.537 0-1.031-0.13-1.482-0.389-0.441-0.269-0.796-0.625-1.065-1.067-0.258-0.452-0.388-0.947-0.388-1.486 0-0.548 0.13-1.043 0.388-1.486 0.269-0.442 0.624-0.793 1.065-1.053 0.451-0.269 0.945-0.404 1.482-0.404 0.547 0 1.041 0.135 1.482 0.404 0.441 0.26 0.792 0.611 1.050 1.053 0.268 0.442 0.403 0.937 0.403 1.486 0 0.538-0.134 1.034-0.403 1.486-0.259 0.442-0.609 0.798-1.050 1.067-0.441 0.26-0.935 0.389-1.482 0.389zM137.475 11.351c0.451 0 0.858-0.111 1.222-0.332s0.657-0.514 0.878-0.88c0.22-0.375 0.331-0.784 0.331-1.226 0-0.452-0.11-0.861-0.331-1.226s-0.513-0.659-0.878-0.88c-0.364-0.221-0.772-0.332-1.222-0.332-0.441 0-0.849 0.111-1.223 0.332-0.364 0.221-0.657 0.514-0.877 0.88s-0.331 0.774-0.331 1.226c0 0.442 0.11 0.851 0.331 1.226 0.22 0.365 0.513 0.659 0.877 0.88 0.374 0.221 0.782 0.332 1.223 0.332zM138.381 10.355c-0.096 0-0.188-0.034-0.274-0.101-0.087-0.077-0.173-0.197-0.259-0.361l-0.417-0.793h-0.36c-0.010 0.096-0.014 0.183-0.014 0.26s0 0.149 0 0.216c0 0.173 0.014 0.284 0.043 0.332s0.13 0.072 0.302 0.072c0.010 0.010 0.014 0.019 0.014 0.029s0.005 0.019 0.014 0.029l-0.029 0.245c0 0-0.024 0-0.072 0-0.048-0.010-0.11-0.014-0.187-0.014-0.067 0-0.134 0-0.202 0h-0.173c-0.125 0-0.263 0.005-0.417 0.014s-0.231 0.014-0.231 0.014l0.029-0.303c0.173-0.019 0.274-0.063 0.302-0.13 0.038-0.067 0.058-0.207 0.058-0.418v-1.601c0-0.106-0.014-0.173-0.043-0.202-0.019-0.038-0.063-0.058-0.13-0.058-0.029 0-0.058 0-0.087 0-0.019 0-0.043 0-0.071 0l-0.029-0.058 0.043-0.245c0 0 0.077 0.005 0.231 0.014 0.163 0 0.292 0 0.388 0h0.159c0.096-0.010 0.192-0.014 0.287-0.014 0.106-0.010 0.159-0.014 0.159-0.014 0.364 0 0.648 0.072 0.849 0.216 0.211 0.135 0.316 0.327 0.316 0.577s-0.072 0.447-0.215 0.591c-0.144 0.135-0.302 0.24-0.475 0.317l0.417 0.62c0.106 0.154 0.206 0.269 0.302 0.346s0.191 0.115 0.287 0.115l0.043 0.058c0 0.077-0.024 0.135-0.072 0.173-0.038 0.039-0.101 0.063-0.187 0.072-0.077 0-0.178 0-0.302 0zM137.504 8.769c0.077-0.029 0.168-0.087 0.274-0.173 0.115-0.087 0.173-0.231 0.173-0.433s-0.067-0.341-0.201-0.418c-0.135-0.087-0.316-0.13-0.547-0.13-0.058 0-0.086 0.038-0.086 0.115-0.010 0.163-0.019 0.332-0.029 0.505 0 0.163 0 0.327 0 0.49 0.048 0 0.111 0.005 0.187 0.014 0.087 0.010 0.163 0.019 0.23 0.029z"></path>
<path fill="currentColor" style="fill: currentColor" d="M144.584 19.95c-0.31 0-0.583-0.030-0.821-0.089-0.231-0.053-0.412-0.106-0.544-0.159-0.125-0.059-0.188-0.089-0.188-0.089l-0.049-0.099c0 0 0.006-0.043 0.020-0.129 0.013-0.093 0.026-0.215 0.040-0.367 0.013-0.159 0.026-0.344 0.040-0.555s0.020-0.436 0.020-0.674l0.445-0.050c0 0.476 0.033 0.84 0.099 1.091 0.065 0.245 0.191 0.413 0.375 0.506 0.185 0.086 0.455 0.129 0.811 0.129 0.409 0 0.738-0.096 0.989-0.288 0.257-0.198 0.386-0.466 0.386-0.803 0-0.218-0.072-0.407-0.218-0.565s-0.333-0.304-0.564-0.436c-0.224-0.132-0.465-0.264-0.722-0.397-0.263-0.139-0.521-0.288-0.772-0.446-0.244-0.159-0.445-0.34-0.603-0.545-0.159-0.212-0.238-0.459-0.238-0.744 0-0.35 0.099-0.664 0.297-0.942 0.204-0.278 0.478-0.496 0.821-0.654 0.343-0.165 0.728-0.248 1.157-0.248 0.297 0 0.558 0.020 0.781 0.059 0.231 0.040 0.409 0.083 0.534 0.129 0.132 0.040 0.198 0.059 0.198 0.059l0.030 0.059c0 0-0.017 0.076-0.049 0.228-0.026 0.152-0.056 0.357-0.089 0.615-0.033 0.251-0.060 0.529-0.079 0.833l-0.386 0.040-0.059-0.050c0 0 0.003-0.046 0.010-0.139 0.013-0.099 0.019-0.225 0.019-0.377 0-0.35-0.085-0.592-0.257-0.724-0.165-0.132-0.471-0.198-0.92-0.198-0.363 0-0.662 0.093-0.9 0.278-0.231 0.178-0.346 0.403-0.346 0.674 0 0.198 0.063 0.377 0.188 0.535 0.125 0.152 0.29 0.291 0.494 0.416s0.425 0.251 0.662 0.377c0.29 0.145 0.573 0.301 0.851 0.466 0.284 0.165 0.518 0.354 0.702 0.565s0.277 0.469 0.277 0.773c0 0.377-0.106 0.711-0.316 1.001-0.204 0.291-0.491 0.519-0.86 0.684-0.363 0.165-0.785 0.248-1.266 0.248z"></path>
<path fill="currentColor" style="fill: currentColor" d="M151.016 19.95c-0.6 0-1.121-0.126-1.563-0.377s-0.785-0.605-1.029-1.061c-0.244-0.463-0.366-1.005-0.366-1.626 0-0.502 0.085-0.965 0.257-1.388 0.172-0.43 0.412-0.8 0.722-1.111 0.31-0.317 0.673-0.562 1.088-0.734 0.422-0.172 0.883-0.258 1.385-0.258 0.204 0 0.409 0.013 0.613 0.040 0.204 0.020 0.389 0.046 0.554 0.079s0.297 0.063 0.395 0.089c0.106 0.020 0.159 0.030 0.159 0.030l0.040 0.059c0 0-0.017 0.076-0.049 0.228-0.033 0.145-0.069 0.344-0.108 0.595s-0.070 0.529-0.089 0.833l-0.475 0.040c0 0 0.004-0.053 0.010-0.159 0.013-0.112 0.019-0.221 0.019-0.327 0-0.311-0.121-0.542-0.365-0.694-0.238-0.152-0.6-0.228-1.088-0.228-0.442 0-0.827 0.106-1.157 0.317-0.323 0.211-0.573 0.509-0.751 0.892s-0.267 0.839-0.267 1.368c0 0.582 0.093 1.091 0.277 1.527 0.191 0.43 0.455 0.767 0.791 1.011 0.343 0.238 0.742 0.357 1.197 0.357 0.448 0 0.808-0.126 1.078-0.377 0.277-0.258 0.478-0.654 0.603-1.19l0.475-0.040c0 0-0.010 0.050-0.030 0.149s-0.047 0.231-0.079 0.397c-0.026 0.159-0.056 0.334-0.089 0.526-0.026 0.185-0.049 0.367-0.069 0.545l-0.060 0.089c0 0-0.089 0.033-0.267 0.099-0.172 0.066-0.409 0.132-0.712 0.198s-0.653 0.099-1.048 0.099z"></path>
<path fill="currentColor" style="fill: currentColor" d="M154.428 19.95l0.060-0.456c0.31-0.059 0.514-0.145 0.613-0.258 0.106-0.119 0.158-0.317 0.158-0.595l0.010-4.165c0-0.211-0.023-0.354-0.069-0.426s-0.145-0.109-0.297-0.109c-0.040 0-0.092 0.003-0.158 0.010-0.066 0-0.125 0.003-0.178 0.010l-0.020-0.040 0.070-0.436c0.151 0.007 0.336 0.013 0.554 0.020 0.225 0.007 0.405 0.010 0.544 0.010 0.125 0 0.287-0.007 0.485-0.020 0.204-0.020 0.395-0.043 0.573-0.069l-0.040 0.446c-0.185 0.026-0.323 0.066-0.416 0.119-0.086 0.046-0.145 0.129-0.178 0.248-0.026 0.112-0.046 0.288-0.060 0.525l-0.060 1.606 1.662 0.010c0.218 0 0.431-0.007 0.643-0.020s0.485-0.040 0.821-0.079l0.010-1.805c0-0.211-0.023-0.354-0.070-0.426s-0.145-0.109-0.297-0.109c-0.046 0-0.102 0.003-0.168 0.010-0.060 0-0.115 0.003-0.168 0.010l-0.019-0.040 0.069-0.436c0 0 0.060 0.003 0.178 0.010s0.254 0.013 0.405 0.020c0.152 0 0.28 0 0.386 0 0.145 0 0.329-0.007 0.554-0.020 0.225-0.020 0.435-0.043 0.633-0.069l-0.040 0.446c-0.244 0.033-0.409 0.089-0.494 0.169-0.079 0.073-0.125 0.205-0.138 0.397-0.019 0.383-0.040 0.787-0.059 1.21-0.013 0.416-0.026 0.826-0.040 1.229-0.013 0.397-0.024 0.76-0.030 1.091s-0.010 0.602-0.010 0.813c0 0.245 0.030 0.41 0.089 0.496 0.060 0.079 0.175 0.119 0.346 0.119 0.072 0 0.151-0.003 0.237-0.010s0.155-0.013 0.208-0.020l0.019 0.040-0.089 0.456c-0.165-0.007-0.369-0.013-0.613-0.020s-0.445-0.010-0.603-0.010c-0.079 0-0.188 0-0.326 0-0.132 0.007-0.27 0.010-0.416 0.010s-0.277 0.003-0.395 0.010l0.089-0.446c0.211-0.007 0.369-0.036 0.475-0.089s0.178-0.155 0.218-0.307 0.060-0.373 0.060-0.664v-1.497c-0.151 0-0.323 0-0.514 0-0.191-0.007-0.375-0.010-0.554-0.010s-0.323 0-0.435 0c-0.065 0-0.188 0.007-0.365 0.020-0.172 0.007-0.373 0.020-0.603 0.040-0.224 0.013-0.448 0.030-0.673 0.050l-0.040 1.775c0 0.264 0.030 0.443 0.089 0.535s0.174 0.139 0.346 0.139c0.072 0 0.151-0.003 0.238-0.010s0.155-0.013 0.208-0.020l0.020 0.040-0.089 0.456c0-0.007-0.049-0.013-0.149-0.020-0.099 0-0.214-0.003-0.346-0.010-0.132 0-0.248 0-0.346 0-0.197 0-0.415 0.007-0.653 0.020-0.231 0.013-0.429 0.026-0.594 0.040-0.165 0.020-0.25 0.040-0.257 0.059z"></path>
<path fill="currentColor" style="fill: currentColor" d="M164.445 19.95c-0.541 0-1.018-0.129-1.434-0.387-0.409-0.258-0.728-0.618-0.959-1.081s-0.346-0.995-0.346-1.596c0-0.489 0.083-0.945 0.248-1.368s0.395-0.793 0.692-1.111c0.297-0.317 0.643-0.565 1.038-0.744s0.821-0.268 1.276-0.268c0.554 0 1.038 0.129 1.454 0.387 0.422 0.258 0.751 0.618 0.989 1.081 0.237 0.456 0.356 0.985 0.356 1.586 0 0.496-0.086 0.955-0.257 1.378-0.165 0.423-0.399 0.793-0.702 1.111-0.297 0.317-0.646 0.565-1.048 0.744s-0.837 0.268-1.305 0.268zM164.752 19.444c0.422 0 0.791-0.109 1.107-0.327s0.564-0.519 0.742-0.902c0.185-0.39 0.277-0.84 0.277-1.349 0-0.569-0.095-1.068-0.286-1.497s-0.455-0.767-0.792-1.011c-0.336-0.245-0.728-0.367-1.177-0.367-0.409 0-0.768 0.109-1.078 0.327s-0.554 0.522-0.732 0.912c-0.172 0.383-0.257 0.83-0.257 1.339 0 0.562 0.093 1.061 0.277 1.497 0.185 0.43 0.442 0.767 0.772 1.011 0.337 0.245 0.719 0.367 1.148 0.367z"></path>
<path fill="currentColor" style="fill: currentColor" d="M171.293 19.95c-0.541 0-1.019-0.129-1.434-0.387-0.409-0.258-0.728-0.618-0.959-1.081s-0.346-0.995-0.346-1.596c0-0.489 0.083-0.945 0.247-1.368s0.395-0.793 0.692-1.111c0.297-0.317 0.643-0.565 1.038-0.744s0.821-0.268 1.275-0.268c0.554 0 1.038 0.129 1.454 0.387 0.422 0.258 0.751 0.618 0.989 1.081 0.238 0.456 0.356 0.985 0.356 1.586 0 0.496-0.085 0.955-0.257 1.378-0.165 0.423-0.399 0.793-0.702 1.111-0.297 0.317-0.647 0.565-1.048 0.744s-0.838 0.268-1.305 0.268zM171.6 19.444c0.422 0 0.791-0.109 1.107-0.327s0.564-0.519 0.742-0.902c0.185-0.39 0.277-0.84 0.277-1.349 0-0.569-0.095-1.068-0.287-1.497s-0.455-0.767-0.791-1.011c-0.337-0.245-0.728-0.367-1.177-0.367-0.409 0-0.768 0.109-1.078 0.327s-0.554 0.522-0.732 0.912c-0.172 0.383-0.257 0.83-0.257 1.339 0 0.562 0.092 1.061 0.277 1.497 0.185 0.43 0.441 0.767 0.772 1.011 0.336 0.245 0.719 0.367 1.147 0.367z"></path>
<path fill="currentColor" style="fill: currentColor" d="M175.678 19.93l0.060-0.456c0.257-0.040 0.432-0.116 0.524-0.228 0.099-0.119 0.149-0.321 0.149-0.605l0.010-4.165c0-0.211-0.024-0.354-0.070-0.426s-0.145-0.109-0.297-0.109c-0.060 0-0.132 0.003-0.218 0.010-0.079 0.007-0.119 0.010-0.119 0.010l-0.019-0.040 0.069-0.436c0 0 0.066 0.003 0.198 0.010s0.284 0.013 0.455 0.020c0.178 0 0.329 0 0.454 0 0.106 0 0.218-0.003 0.337-0.010 0.125-0.013 0.24-0.023 0.346-0.030 0.112-0.013 0.201-0.023 0.267-0.030 0.072-0.013 0.109-0.020 0.109-0.020l-0.040 0.446c-0.218 0.026-0.369 0.069-0.455 0.129s-0.135 0.152-0.149 0.278c-0.013 0.119-0.030 0.291-0.049 0.516-0.026 0.41-0.049 0.856-0.069 1.339-0.020 0.476-0.033 0.935-0.040 1.378-0.006 0.436-0.010 0.806-0.010 1.111 0 0.225 0.017 0.393 0.049 0.506 0.040 0.106 0.119 0.175 0.238 0.208 0.125 0.033 0.31 0.050 0.554 0.050 0.291 0 0.524-0.017 0.702-0.050s0.32-0.099 0.425-0.198c0.112-0.099 0.201-0.241 0.267-0.426s0.125-0.43 0.178-0.734l0.435-0.050 0.030 0.050c0 0-0.017 0.089-0.049 0.268s-0.072 0.41-0.119 0.694c-0.040 0.284-0.079 0.592-0.119 0.922l-0.049 0.059c0 0-0.092-0.007-0.276-0.020-0.185-0.007-0.419-0.017-0.702-0.030-0.284-0.007-0.577-0.017-0.88-0.030-0.297-0.007-0.564-0.010-0.801-0.010-0.244 0-0.469 0.007-0.673 0.020-0.198 0.020-0.357 0.036-0.475 0.050-0.119 0.020-0.178 0.030-0.178 0.030z"></path>
<path fill="currentColor" style="fill: currentColor" d="M1.147 18.969l0.079-0.426c0.31-0.026 0.534-0.066 0.673-0.119 0.138-0.059 0.224-0.169 0.257-0.327 0.040-0.165 0.059-0.423 0.059-0.773v-4.323c-0.382 0.013-0.686 0.033-0.91 0.059-0.218 0.020-0.379 0.069-0.485 0.149-0.106 0.073-0.181 0.192-0.227 0.357s-0.089 0.393-0.129 0.684l-0.465 0.040c0.026-0.192 0.049-0.39 0.069-0.595s0.036-0.403 0.049-0.595c0.013-0.198 0.023-0.373 0.030-0.525l0.089-0.079 0.821 0.109h3.066l0.841-0.109 0.089 0.079c0.007 0.152 0.016 0.327 0.030 0.525 0.013 0.192 0.030 0.387 0.049 0.585 0.026 0.198 0.049 0.387 0.069 0.565l-0.465 0.040c-0.046-0.297-0.096-0.529-0.148-0.694-0.046-0.172-0.122-0.294-0.227-0.367-0.099-0.079-0.251-0.132-0.455-0.159s-0.485-0.050-0.841-0.069c-0.020 0.198-0.040 0.483-0.059 0.853s-0.036 0.787-0.049 1.249c-0.013 0.456-0.026 0.922-0.040 1.398-0.007 0.476-0.010 0.916-0.010 1.319 0 0.245 0.043 0.42 0.129 0.526 0.086 0.099 0.231 0.149 0.435 0.149 0.198 0 0.379-0.010 0.544-0.030l0.030 0.040-0.089 0.456c-0.138-0.007-0.3-0.013-0.485-0.020-0.185 0-0.366-0.003-0.544-0.010-0.171 0-0.313 0-0.425 0-0.106 0-0.241 0-0.405 0-0.158 0.007-0.323 0.013-0.494 0.020-0.165 0.007-0.316 0.013-0.455 0.020z"></path>
<path fill="currentColor" style="fill: currentColor" d="M5.884 19.049l0.059-0.456c0.31-0.059 0.514-0.145 0.613-0.258 0.106-0.119 0.158-0.317 0.158-0.595l0.010-4.165c0-0.211-0.023-0.354-0.069-0.426s-0.145-0.109-0.297-0.109c-0.040 0-0.092 0.003-0.158 0.010-0.066 0-0.125 0.003-0.178 0.010l-0.020-0.040 0.069-0.436c0.152 0.007 0.336 0.013 0.554 0.020 0.224 0.007 0.405 0.010 0.544 0.010 0.125 0 0.287-0.007 0.485-0.020 0.204-0.020 0.396-0.043 0.574-0.069l-0.040 0.446c-0.185 0.026-0.323 0.066-0.415 0.119-0.086 0.046-0.145 0.129-0.178 0.248-0.026 0.112-0.046 0.288-0.059 0.525l-0.059 1.606 1.662 0.010c0.218 0 0.432-0.007 0.643-0.020s0.485-0.040 0.821-0.079l0.010-1.805c0-0.211-0.023-0.354-0.069-0.426s-0.145-0.109-0.297-0.109c-0.046 0-0.102 0.003-0.168 0.010-0.059 0-0.115 0.003-0.168 0.010l-0.020-0.040 0.069-0.436c0 0 0.059 0.003 0.178 0.010s0.254 0.013 0.405 0.020c0.152 0 0.28 0 0.386 0 0.145 0 0.33-0.007 0.554-0.020 0.224-0.020 0.435-0.043 0.633-0.069l-0.040 0.446c-0.244 0.033-0.409 0.089-0.495 0.169-0.079 0.073-0.125 0.205-0.138 0.397-0.020 0.383-0.040 0.787-0.059 1.21-0.013 0.416-0.026 0.826-0.040 1.229-0.013 0.397-0.023 0.76-0.030 1.091s-0.010 0.602-0.010 0.813c0 0.245 0.030 0.41 0.089 0.496 0.059 0.079 0.175 0.119 0.346 0.119 0.073 0 0.152-0.003 0.237-0.010s0.155-0.013 0.208-0.020l0.020 0.040-0.089 0.456c-0.165-0.007-0.369-0.013-0.613-0.020s-0.445-0.010-0.603-0.010c-0.079 0-0.188 0-0.326 0-0.132 0.007-0.27 0.010-0.415 0.010s-0.277 0.003-0.396 0.010l0.089-0.446c0.211-0.007 0.369-0.036 0.475-0.089s0.178-0.155 0.218-0.307 0.059-0.373 0.059-0.664v-1.497c-0.152 0-0.323 0-0.514 0-0.191-0.007-0.376-0.010-0.554-0.010s-0.323 0-0.435 0c-0.066 0-0.188 0.007-0.366 0.020-0.171 0.007-0.373 0.020-0.603 0.040-0.224 0.013-0.448 0.030-0.673 0.050l-0.040 1.775c0 0.264 0.030 0.443 0.089 0.535s0.175 0.139 0.346 0.139c0.072 0 0.152-0.003 0.237-0.010s0.155-0.013 0.208-0.020l0.020 0.040-0.089 0.456c0-0.007-0.049-0.013-0.148-0.020-0.099 0-0.214-0.003-0.346-0.010-0.132 0-0.247 0-0.346 0-0.198 0-0.415 0.007-0.653 0.020-0.231 0.013-0.429 0.026-0.593 0.040-0.165 0.020-0.251 0.040-0.257 0.059z"></path>
<path fill="currentColor" style="fill: currentColor" d="M13.34 19.029l0.059-0.456c0.297-0.040 0.498-0.116 0.603-0.228 0.112-0.119 0.168-0.321 0.168-0.605l0.010-4.165c0-0.211-0.023-0.354-0.069-0.426s-0.145-0.109-0.297-0.109c-0.040 0-0.092 0.003-0.158 0.010-0.066 0-0.125 0.003-0.178 0.010l-0.020-0.040 0.069-0.436c0.112 0 0.247 0.003 0.405 0.010s0.323 0.013 0.495 0.020c0.171 0 0.33 0 0.475 0 0.527 0 0.969-0.003 1.325-0.010 0.363-0.007 0.672-0.020 0.93-0.040s0.494-0.043 0.712-0.069l0.030 0.059c-0.033 0.159-0.066 0.337-0.099 0.535-0.033 0.192-0.059 0.383-0.079 0.575s-0.036 0.37-0.049 0.535l-0.475 0.040c0.007-0.059 0.010-0.132 0.010-0.218 0.007-0.093 0.010-0.162 0.010-0.208 0-0.159-0.017-0.284-0.049-0.377-0.026-0.099-0.089-0.172-0.188-0.218-0.092-0.046-0.241-0.076-0.445-0.089s-0.481-0.020-0.831-0.020c-0.211 0-0.366 0.007-0.465 0.020s-0.162 0.046-0.188 0.099c-0.020 0.053-0.033 0.142-0.040 0.268l-0.099 2.31-0.040 2.082c0 0.178 0.016 0.311 0.049 0.397 0.033 0.079 0.102 0.132 0.208 0.159 0.112 0.026 0.287 0.040 0.524 0.040 0.389 0 0.702-0.013 0.94-0.040s0.419-0.079 0.544-0.159c0.125-0.079 0.218-0.198 0.277-0.357 0.059-0.165 0.109-0.383 0.148-0.654l0.435-0.050 0.030 0.050c-0.046 0.205-0.096 0.466-0.148 0.783-0.046 0.317-0.086 0.611-0.119 0.883l-0.049 0.059c-0.396-0.013-0.791-0.026-1.187-0.040-0.389-0.007-0.742-0.013-1.058-0.020s-0.567-0.010-0.752-0.010c-0.204 0-0.438 0.007-0.702 0.020-0.257 0.020-0.481 0.046-0.673 0.079zM14.774 16.014l0.089-0.595c0.046 0 0.135 0 0.267 0s0.274 0.003 0.425 0.010c0.152 0 0.284 0 0.396 0s0.283-0.010 0.514-0.030c0.237-0.026 0.468-0.053 0.692-0.079l0.040 0.050-0.138 0.585c-0.185-0.007-0.415-0.013-0.692-0.020-0.27-0.007-0.501-0.010-0.692-0.010-0.125 0-0.274 0.010-0.445 0.030-0.165 0.013-0.316 0.033-0.455 0.059z"></path>
<path fill="currentColor" style="fill: currentColor" d="M21.893 19.029l-0.030-0.069 0.040-0.387c0.231-0.020 0.409-0.043 0.534-0.069s0.214-0.063 0.267-0.109c0.053-0.053 0.079-0.119 0.079-0.198 0-0.066-0.007-0.139-0.020-0.218s-0.036-0.165-0.069-0.258l-0.326-1.081c-0.119-0.007-0.287-0.010-0.504-0.010-0.211 0-0.386 0-0.524 0-0.191 0-0.392 0.010-0.603 0.030-0.204 0.020-0.363 0.036-0.475 0.050l-0.366 1.031c-0.059 0.178-0.089 0.307-0.089 0.387 0 0.145 0.046 0.251 0.139 0.317 0.099 0.059 0.251 0.089 0.455 0.089h0.564l0.020 0.040-0.059 0.426c0 0-0.069-0.007-0.208-0.020s-0.313-0.026-0.524-0.040c-0.211-0.007-0.425-0.010-0.643-0.010-0.158 0-0.323 0-0.494 0-0.165 0.007-0.307 0.013-0.425 0.020-0.112 0.007-0.168 0.010-0.168 0.010l0.079-0.466c0.185-0.020 0.333-0.083 0.445-0.188s0.221-0.297 0.326-0.575l1.929-5.067 0.623-0.169h0.079c0 0 0.020 0.079 0.059 0.238 0.046 0.152 0.105 0.367 0.178 0.645 0.079 0.271 0.168 0.585 0.267 0.942 0.105 0.35 0.214 0.724 0.326 1.12 0.119 0.397 0.241 0.8 0.366 1.21 0.125 0.403 0.251 0.79 0.376 1.16 0.079 0.245 0.185 0.416 0.317 0.516 0.138 0.099 0.349 0.162 0.633 0.188l0.020 0.040-0.069 0.407c0 0-0.066-0.003-0.198-0.010-0.125-0.007-0.27-0.013-0.435-0.020-0.165 0-0.303 0-0.415 0-0.251 0-0.491 0.007-0.722 0.020-0.224 0.020-0.405 0.036-0.544 0.050-0.138 0.020-0.208 0.030-0.208 0.030zM20.439 16.223h0.87c0.132 0 0.29-0.007 0.475-0.020s0.333-0.023 0.445-0.030l-0.781-2.598h-0.069l-0.94 2.647z"></path>
<path fill="currentColor" style="fill: currentColor" d="M25.37 18.969l0.079-0.426c0.31-0.026 0.534-0.066 0.673-0.119 0.138-0.059 0.224-0.169 0.257-0.327 0.040-0.165 0.059-0.423 0.059-0.773v-4.323c-0.382 0.013-0.686 0.033-0.91 0.059-0.218 0.020-0.379 0.069-0.485 0.149-0.105 0.073-0.181 0.192-0.227 0.357s-0.089 0.393-0.129 0.684l-0.465 0.040c0.026-0.192 0.049-0.39 0.069-0.595s0.036-0.403 0.049-0.595c0.013-0.198 0.023-0.373 0.030-0.525l0.089-0.079 0.821 0.109h3.066l0.841-0.109 0.089 0.079c0.007 0.152 0.017 0.327 0.030 0.525 0.013 0.192 0.030 0.387 0.049 0.585 0.026 0.198 0.049 0.387 0.069 0.565l-0.465 0.040c-0.046-0.297-0.096-0.529-0.148-0.694-0.046-0.172-0.122-0.294-0.227-0.367-0.099-0.079-0.251-0.132-0.455-0.159s-0.485-0.050-0.841-0.069c-0.020 0.198-0.040 0.483-0.059 0.853s-0.036 0.787-0.049 1.249c-0.013 0.456-0.026 0.922-0.040 1.398-0.007 0.476-0.010 0.916-0.010 1.319 0 0.245 0.043 0.42 0.129 0.526 0.086 0.099 0.231 0.149 0.435 0.149 0.198 0 0.379-0.010 0.544-0.030l0.030 0.040-0.089 0.456c-0.138-0.007-0.3-0.013-0.485-0.020-0.185 0-0.366-0.003-0.544-0.010-0.171 0-0.313 0-0.425 0-0.105 0-0.241 0-0.405 0-0.158 0.007-0.323 0.013-0.495 0.020-0.165 0.007-0.316 0.013-0.455 0.020z"></path>
<path fill="currentColor" style="fill: currentColor" d="M34.597 19.088c-0.165 0-0.343-0.086-0.534-0.258-0.185-0.172-0.356-0.4-0.514-0.684l-1.058-1.924h-0.821l-0.030 1.477c0 0.238 0.013 0.416 0.040 0.535 0.033 0.112 0.099 0.188 0.198 0.228 0.105 0.033 0.264 0.050 0.475 0.050l0.020 0.040-0.089 0.416c0 0-0.033-0.003-0.099-0.010-0.066 0-0.152-0.003-0.257-0.010-0.099 0-0.211-0.003-0.336-0.010-0.119 0-0.237 0-0.356 0-0.165-0.007-0.336-0.007-0.514 0-0.171 0.007-0.32 0.013-0.445 0.020-0.119 0.007-0.178 0.010-0.178 0.010l0.089-0.446c0.31-0.033 0.511-0.099 0.603-0.198 0.099-0.106 0.148-0.301 0.148-0.585l0.010-4.165c0-0.211-0.026-0.354-0.079-0.426-0.046-0.073-0.142-0.109-0.287-0.109-0.059 0-0.132 0.003-0.218 0.010-0.079 0.007-0.119 0.010-0.119 0.010l-0.020-0.040 0.069-0.436c0 0 0.036 0.003 0.109 0.010 0.079 0 0.178 0.003 0.297 0.010 0.119 0 0.241 0.003 0.366 0.010 0.125 0 0.234 0 0.326 0 0.086 0 0.195 0 0.326 0 0.139-0.007 0.274-0.013 0.405-0.020 0.139-0.007 0.254-0.010 0.346-0.010 0.092-0.007 0.139-0.010 0.139-0.010 0.613 0 1.098 0.139 1.454 0.416s0.534 0.658 0.534 1.14c0 0.397-0.129 0.76-0.386 1.091-0.251 0.331-0.607 0.601-1.068 0.813l1.088 1.725c0.191 0.311 0.376 0.529 0.554 0.654 0.185 0.126 0.409 0.188 0.673 0.188l0.040 0.040-0.059 0.337-0.841 0.109zM32.708 15.767c0 0 0.053-0.020 0.158-0.059 0.112-0.046 0.237-0.122 0.376-0.228s0.26-0.255 0.366-0.446c0.112-0.192 0.168-0.433 0.168-0.724 0-0.436-0.152-0.764-0.455-0.982-0.297-0.218-0.748-0.327-1.355-0.327-0.066 0-0.112 0.017-0.138 0.050-0.020 0.026-0.033 0.086-0.040 0.178-0.026 0.522-0.049 0.972-0.069 1.349-0.013 0.377-0.023 0.74-0.030 1.091l1.019 0.099z"></path>
<path fill="currentColor" style="fill: currentColor" d="M36.153 19.029l0.059-0.456c0.297-0.040 0.498-0.116 0.603-0.228 0.112-0.119 0.168-0.321 0.168-0.605l0.010-4.165c0-0.211-0.023-0.354-0.069-0.426s-0.145-0.109-0.297-0.109c-0.040 0-0.092 0.003-0.158 0.010-0.066 0-0.125 0.003-0.178 0.010l-0.020-0.040 0.069-0.436c0.112 0 0.247 0.003 0.406 0.010s0.323 0.013 0.495 0.020c0.171 0 0.33 0 0.475 0 0.528 0 0.969-0.003 1.325-0.010 0.363-0.007 0.672-0.020 0.93-0.040s0.495-0.043 0.712-0.069l0.030 0.059c-0.033 0.159-0.066 0.337-0.099 0.535-0.033 0.192-0.059 0.383-0.079 0.575s-0.036 0.37-0.049 0.535l-0.475 0.040c0.007-0.059 0.010-0.132 0.010-0.218 0.007-0.093 0.010-0.162 0.010-0.208 0-0.159-0.017-0.284-0.049-0.377-0.026-0.099-0.089-0.172-0.188-0.218-0.092-0.046-0.241-0.076-0.445-0.089s-0.481-0.020-0.831-0.020c-0.211 0-0.366 0.007-0.465 0.020s-0.162 0.046-0.188 0.099c-0.020 0.053-0.033 0.142-0.040 0.268l-0.099 2.31-0.040 2.082c0 0.178 0.017 0.311 0.049 0.397 0.033 0.079 0.102 0.132 0.208 0.159 0.112 0.026 0.287 0.040 0.524 0.040 0.389 0 0.702-0.013 0.94-0.040s0.419-0.079 0.544-0.159c0.125-0.079 0.218-0.198 0.277-0.357 0.059-0.165 0.109-0.383 0.148-0.654l0.435-0.050 0.030 0.050c-0.046 0.205-0.096 0.466-0.148 0.783-0.046 0.317-0.086 0.611-0.119 0.883l-0.049 0.059c-0.396-0.013-0.791-0.026-1.187-0.040-0.389-0.007-0.742-0.013-1.058-0.020s-0.567-0.010-0.752-0.010c-0.204 0-0.438 0.007-0.702 0.020-0.257 0.020-0.481 0.046-0.672 0.079zM37.587 16.014l0.089-0.595c0.046 0 0.135 0 0.267 0s0.274 0.003 0.425 0.010c0.152 0 0.284 0 0.396 0s0.284-0.010 0.514-0.030c0.237-0.026 0.468-0.053 0.692-0.079l0.040 0.050-0.138 0.585c-0.185-0.007-0.415-0.013-0.692-0.020-0.27-0.007-0.501-0.010-0.692-0.010-0.125 0-0.274 0.010-0.445 0.030-0.165 0.013-0.316 0.033-0.455 0.059z"></path>
<path fill="currentColor" style="fill: currentColor" d="M59.261 25.113c-1.474 0-2.778-0.352-3.911-1.055-1.115-0.703-1.987-1.686-2.617-2.948s-0.944-2.713-0.944-4.354c0-1.334 0.225-2.578 0.675-3.732s1.079-2.163 1.888-3.029c0.809-0.865 1.754-1.541 2.832-2.028s2.239-0.73 3.48-0.73c1.511 0 2.833 0.352 3.965 1.055 1.151 0.703 2.050 1.686 2.698 2.948 0.647 1.244 0.971 2.686 0.971 4.327 0 1.352-0.234 2.605-0.701 3.759-0.45 1.154-1.088 2.163-1.915 3.029-0.809 0.865-1.762 1.541-2.859 2.028s-2.283 0.73-3.56 0.73zM60.097 23.734c1.151 0 2.157-0.297 3.020-0.892s1.538-1.415 2.023-2.461c0.504-1.064 0.755-2.29 0.755-3.678 0-1.55-0.261-2.912-0.782-4.083s-1.24-2.091-2.157-2.758-1.987-1.001-3.21-1.001c-1.115 0-2.095 0.297-2.94 0.892s-1.511 1.424-1.996 2.488c-0.468 1.046-0.701 2.263-0.701 3.651 0 1.532 0.252 2.894 0.755 4.083 0.504 1.172 1.205 2.091 2.104 2.758 0.917 0.667 1.96 1.001 3.129 1.001z"></path>
<path fill="currentColor" style="fill: currentColor" d="M74.025 24.789c-0.341 0-0.692 0.018-1.052 0.054s-0.692 0.072-0.998 0.108c-0.305 0.036-0.557 0.072-0.755 0.108-0.18 0.036-0.27 0.054-0.27 0.054l0.162-1.244c0.845-0.162 1.403-0.397 1.672-0.703 0.287-0.325 0.431-0.865 0.431-1.623l0.027-11.358c0-0.577-0.063-0.964-0.189-1.163s-0.395-0.297-0.809-0.297c-0.162 0-0.359 0.009-0.594 0.027-0.216 0.018-0.323 0.027-0.323 0.027l-0.054-0.108 0.189-1.19c0 0 0.099 0.009 0.297 0.027 0.216 0 0.486 0.009 0.809 0.027 0.324 0 0.656 0.009 0.998 0.027 0.342 0 0.638 0 0.89 0 0.198 0 0.432 0 0.701 0 0.27-0.018 0.549-0.027 0.836-0.027 0.288-0.018 0.558-0.027 0.809-0.027 0.251-0.018 0.45-0.027 0.594-0.027 0.162-0.018 0.243-0.027 0.243-0.027 1.709 0 3.021 0.352 3.938 1.055s1.376 1.722 1.376 3.056c0 0.883-0.269 1.695-0.809 2.434-0.54 0.721-1.313 1.298-2.32 1.731 0.881 0.18 1.627 0.469 2.239 0.865 0.629 0.397 1.106 0.874 1.43 1.433 0.342 0.541 0.513 1.145 0.513 1.812 0 0.937-0.296 1.803-0.89 2.596-0.576 0.793-1.349 1.433-2.32 1.92-0.953 0.469-1.996 0.703-3.129 0.703-0.287 0-0.585-0.018-0.89-0.054-0.288-0.018-0.576-0.045-0.863-0.081s-0.594-0.072-0.918-0.108c-0.305-0.018-0.629-0.027-0.971-0.027zM75.239 16.73l-0.108 5.057c0 0.685 0.234 1.172 0.701 1.46s1.258 0.433 2.373 0.433c1.079 0 1.924-0.297 2.535-0.892 0.629-0.613 0.944-1.433 0.944-2.461 0-2.001-1.214-3.218-3.641-3.651l-2.805 0.054zM75.293 15.297c0 0 0.126 0.009 0.377 0.027 0.269 0.018 0.585 0.045 0.944 0.081s0.692 0.063 0.998 0.081c0.306 0.018 0.513 0.027 0.621 0.027 0 0 0.126-0.045 0.377-0.135 0.252-0.108 0.549-0.279 0.89-0.514 0.342-0.252 0.638-0.604 0.891-1.055 0.251-0.469 0.377-1.064 0.377-1.785 0-1.172-0.386-2.028-1.16-2.569-0.773-0.559-1.969-0.838-3.588-0.838-0.18 0-0.305 0.045-0.377 0.135-0.054 0.072-0.090 0.234-0.108 0.487-0.036 0.577-0.072 1.199-0.108 1.866-0.018 0.649-0.045 1.325-0.081 2.028-0.018 0.685-0.036 1.406-0.054 2.163z"></path>
<path fill="currentColor" style="fill: currentColor" d="M99.29 25.221c-0.45 0-0.935-0.234-1.457-0.703-0.504-0.469-0.971-1.091-1.403-1.866l-2.886-5.246h-2.239l-0.081 4.029c0 0.649 0.036 1.136 0.108 1.46 0.090 0.306 0.27 0.514 0.54 0.622 0.288 0.090 0.719 0.135 1.295 0.135l0.054 0.108-0.243 1.136c0 0-0.090-0.009-0.269-0.027-0.18 0-0.414-0.009-0.701-0.027-0.269 0-0.576-0.009-0.917-0.027-0.323 0-0.647 0-0.971 0-0.45-0.018-0.917-0.018-1.403 0-0.468 0.018-0.873 0.036-1.214 0.054-0.323 0.018-0.486 0.027-0.486 0.027l0.243-1.217c0.845-0.090 1.394-0.27 1.645-0.541 0.27-0.288 0.404-0.82 0.404-1.596l0.027-11.358c0-0.577-0.072-0.964-0.216-1.163-0.126-0.198-0.386-0.297-0.782-0.297-0.162 0-0.359 0.009-0.593 0.027-0.216 0.018-0.324 0.027-0.324 0.027l-0.054-0.108 0.189-1.19c0 0 0.099 0.009 0.296 0.027 0.216 0 0.486 0.009 0.809 0.027 0.323 0 0.656 0.009 0.998 0.027 0.341 0 0.638 0 0.89 0 0.234 0 0.531 0 0.89 0 0.377-0.018 0.746-0.036 1.106-0.054 0.377-0.018 0.692-0.027 0.944-0.027 0.252-0.018 0.377-0.027 0.377-0.027 1.672 0 2.994 0.379 3.965 1.136s1.457 1.794 1.457 3.11c0 1.082-0.35 2.073-1.052 2.975-0.683 0.901-1.654 1.641-2.913 2.217l2.967 4.705c0.522 0.847 1.025 1.442 1.51 1.785 0.504 0.343 1.115 0.514 1.835 0.514l0.108 0.108-0.162 0.919-2.293 0.297zM94.138 16.162c0 0 0.144-0.054 0.431-0.162 0.305-0.126 0.647-0.334 1.025-0.622s0.71-0.694 0.998-1.217c0.305-0.523 0.459-1.181 0.459-1.974 0-1.19-0.413-2.082-1.241-2.677-0.809-0.595-2.040-0.892-3.695-0.892-0.18 0-0.306 0.045-0.377 0.135-0.054 0.072-0.090 0.234-0.108 0.487-0.072 1.424-0.135 2.65-0.189 3.678-0.036 1.028-0.063 2.019-0.081 2.975l2.778 0.27z"></path>
<path fill="currentColor" style="fill: currentColor" d="M110.924 25.059l-0.081-0.189 0.108-1.055c0.629-0.054 1.115-0.117 1.457-0.189s0.585-0.171 0.728-0.297c0.144-0.144 0.216-0.325 0.216-0.541 0-0.18-0.018-0.379-0.054-0.595s-0.099-0.451-0.189-0.703l-0.891-2.948c-0.323-0.018-0.782-0.027-1.376-0.027-0.576 0-1.052 0-1.43 0-0.522 0-1.070 0.027-1.645 0.081-0.558 0.054-0.989 0.099-1.294 0.135l-0.998 2.812c-0.162 0.487-0.243 0.838-0.243 1.055 0 0.397 0.126 0.685 0.378 0.865 0.269 0.162 0.683 0.243 1.24 0.243h1.537l0.054 0.108-0.162 1.163c0 0-0.189-0.018-0.567-0.054s-0.854-0.072-1.43-0.108c-0.576-0.018-1.159-0.027-1.753-0.027-0.431 0-0.882 0-1.349 0-0.45 0.018-0.836 0.036-1.159 0.054-0.306 0.018-0.459 0.027-0.459 0.027l0.216-1.271c0.504-0.054 0.908-0.225 1.214-0.514s0.603-0.811 0.89-1.568l5.26-13.819 1.7-0.46h0.216c0 0 0.054 0.216 0.162 0.649 0.126 0.415 0.288 1.001 0.486 1.758 0.216 0.739 0.459 1.595 0.728 2.569 0.287 0.956 0.585 1.974 0.89 3.056 0.323 1.082 0.656 2.181 0.998 3.299 0.341 1.1 0.683 2.154 1.025 3.164 0.216 0.667 0.504 1.136 0.863 1.406 0.378 0.27 0.953 0.442 1.727 0.514l0.054 0.108-0.189 1.109c0 0-0.18-0.009-0.54-0.027-0.341-0.018-0.737-0.036-1.186-0.054-0.45 0-0.828 0-1.133 0-0.683 0-1.34 0.018-1.969 0.054-0.612 0.054-1.106 0.099-1.484 0.135-0.377 0.054-0.567 0.081-0.567 0.081zM106.96 17.406h2.373c0.359 0 0.791-0.018 1.294-0.054s0.909-0.063 1.214-0.081l-2.131-7.085h-0.189l-2.563 7.22z"></path>
<path fill="currentColor" style="fill: currentColor" d="M119.016 24.87l-0.377-0.865 10.061-15.252-4.666 0.162c-0.828 0.036-1.493 0.18-1.996 0.433-0.486 0.234-0.854 0.613-1.106 1.136s-0.431 1.244-0.54 2.163l-1.267 0.108c0 0 0.018-0.153 0.054-0.46 0.053-0.306 0.108-0.721 0.162-1.244 0.072-0.523 0.126-1.091 0.162-1.704 0.054-0.631 0.090-1.253 0.108-1.866l0.269-0.243 4.721 0.297 6.959 0.189 0.297 0.784c-1.276 1.695-2.482 3.353-3.614 4.976-1.132 1.605-2.157 3.101-3.075 4.489-0.918 1.37-1.7 2.551-2.347 3.543-0.629 0.992-1.088 1.722-1.376 2.19l5.475-0.189c0.935-0.018 1.691-0.388 2.266-1.109s1.007-1.848 1.294-3.38l1.268-0.135c0 0-0.027 0.162-0.081 0.487s-0.126 0.766-0.216 1.325c-0.072 0.541-0.144 1.136-0.216 1.785s-0.125 1.298-0.161 1.947l-0.405 0.433-9.764-0.162-1.888 0.162z"></path>
<path fill="currentColor" style="fill: currentColor" d="M49.361 30.648h84.965v0.451h-84.965v-0.451z"></path>
<path fill="currentColor" style="fill: currentColor" d="M49.361 0.901h84.965v0.451h-84.965v-0.451z"></path>
</symbol>
<symbol id="icon-google" viewBox="0 0 32 32">
<path fill="#4285f4" style="fill: var(--color3, #4285f4)" d="M16 13.091v6.196h8.611c-0.378 1.993-1.513 3.68-3.215 4.815l5.193 4.029c3.025-2.793 4.771-6.895 4.771-11.767 0-1.134-0.102-2.226-0.291-3.273l-15.069-0z"></path>
<path fill="#34a853" style="fill: var(--color4, #34a853)" d="M7.033 19.045l-1.171 0.896-4.146 3.229c2.633 5.222 8.029 8.829 14.283 8.829 4.32 0 7.942-1.425 10.589-3.869l-5.193-4.029c-1.425 0.96-3.244 1.542-5.396 1.542-4.16 0-7.694-2.807-8.96-6.589l-0.007-0.009z"></path>
<path fill="#fbbc05" style="fill: var(--color5, #fbbc05)" d="M1.716 8.829c-1.091 2.153-1.716 4.582-1.716 7.171s0.625 5.018 1.716 7.171c0 0.015 5.324-4.131 5.324-4.131-0.32-0.96-0.509-1.978-0.509-3.040s0.189-2.080 0.509-3.040l-5.324-4.131z"></path>
<path fill="#ea4335" style="fill: var(--color6, #ea4335)" d="M16 6.371c2.356 0 4.451 0.815 6.124 2.385l4.582-4.582c-2.778-2.589-6.385-4.175-10.705-4.175-6.255 0-11.651 3.593-14.284 8.829l5.324 4.131c1.265-3.782 4.8-6.589 8.96-6.589z"></path>
</symbol>
<symbol id="icon-instagram" viewBox="0 0 32 32">
<path d="M22.467 0h-12.934c-5.256 0-9.533 4.276-9.533 9.533v12.934c0 5.256 4.276 9.533 9.533 9.533h12.934c5.256 0 9.533-4.276 9.533-9.533v-12.934c-0-5.256-4.276-9.533-9.533-9.533zM28.781 22.467c0 3.487-2.827 6.314-6.314 6.314h-12.934c-3.487 0-6.314-2.827-6.314-6.314v-12.934c0-3.487 2.827-6.314 6.314-6.314h12.934c3.487 0 6.314 2.827 6.314 6.314v12.934z"></path>
<path d="M15.999 7.724c-4.564 0-8.276 3.713-8.276 8.276s3.713 8.276 8.276 8.276c4.564 0 8.276-3.713 8.276-8.276s-3.713-8.276-8.276-8.276zM15.999 21.057c-2.793 0-5.057-2.264-5.057-5.057s2.264-5.057 5.057-5.057c2.793 0 5.057 2.264 5.057 5.057s-2.264 5.057-5.057 5.057z"></path>
<path d="M24.292 9.769c1.095 0 1.983-0.888 1.983-1.983s-0.888-1.983-1.983-1.983c-1.095 0-1.983 0.888-1.983 1.983s0.888 1.983 1.983 1.983z"></path>
</symbol>
<symbol id="icon-tiktok" viewBox="0 0 32 32">
<path d="M22.902 11.551c2.058 1.476 4.579 2.345 7.301 2.345v-5.258c-0.515 0-1.029-0.054-1.533-0.161v4.139c-2.723 0-5.243-0.869-7.301-2.345v10.73c0 5.368-4.336 9.719-9.684 9.719-1.996 0-3.85-0.605-5.391-1.644 1.759 1.805 4.211 2.924 6.924 2.924 5.349 0 9.685-4.351 9.685-9.719v-10.73h-0zM24.794 6.247c-1.052-1.153-1.742-2.643-1.892-4.29v-0.676h-1.453c0.366 2.094 1.613 3.883 3.345 4.967zM9.676 24.957c-0.588-0.773-0.905-1.719-0.904-2.692 0-2.455 1.983-4.445 4.43-4.445 0.456-0 0.909 0.070 1.344 0.208v-5.375c-0.508-0.070-1.020-0.1-1.533-0.089v4.184c-0.435-0.138-0.888-0.209-1.345-0.208-2.447 0-4.43 1.99-4.43 4.446 0 1.736 0.991 3.239 2.437 3.971z"></path>
<path d="M21.369 10.271c2.058 1.476 4.579 2.345 7.301 2.345v-4.139c-1.52-0.325-2.865-1.122-3.877-2.23-1.731-1.084-2.979-2.873-3.345-4.967h-3.817v21.001c-0.009 2.448-1.988 4.431-4.43 4.431-1.439 0-2.717-0.688-3.526-1.754-1.446-0.732-2.437-2.235-2.437-3.971 0-2.455 1.983-4.446 4.43-4.446 0.469 0 0.921 0.073 1.345 0.208v-4.184c-5.254 0.109-9.48 4.418-9.48 9.716 0 2.645 1.052 5.043 2.76 6.795 1.541 1.038 3.396 1.644 5.391 1.644 5.348 0 9.684-4.351 9.684-9.719v-10.73h-0z"></path>
<path d="M28.67 8.477v-1.119c-1.37 0.002-2.714-0.383-3.877-1.111 1.029 1.131 2.385 1.911 3.877 2.231zM21.449 1.28c-0.035-0.2-0.062-0.401-0.080-0.604v-0.676h-5.27v21.001c-0.008 2.448-1.988 4.43-4.43 4.43-0.717 0-1.394-0.171-1.993-0.474 0.809 1.066 2.088 1.754 3.526 1.754 2.441 0 4.421-1.982 4.43-4.43v-21.001h3.817zM13.014 12.565v-1.191c-0.44-0.060-0.884-0.091-1.329-0.091-5.349-0-9.685 4.351-9.685 9.718 0 3.365 1.704 6.331 4.294 8.075-1.708-1.752-2.76-4.15-2.76-6.795 0-5.299 4.226-9.607 9.48-9.716z"></path>
</symbol>
<symbol id="icon-youtube" viewBox="0 0 32 32">
<path d="M31.363 8.247c-0.181-0.681-0.538-1.302-1.034-1.802s-1.116-0.86-1.795-1.045c-2.502-0.673-12.502-0.673-12.502-0.673s-10 0-12.502 0.673c-0.68 0.185-1.299 0.546-1.795 1.045s-0.853 1.121-1.034 1.802c-0.669 2.513-0.669 7.753-0.669 7.753s0 5.24 0.669 7.753c0.181 0.681 0.537 1.302 1.034 1.802s1.116 0.86 1.795 1.046c2.502 0.673 12.502 0.673 12.502 0.673s10 0 12.502-0.673c0.68-0.185 1.299-0.546 1.795-1.046s0.853-1.121 1.034-1.802c0.669-2.513 0.669-7.753 0.669-7.753s0-5.24-0.669-7.753z"></path>
<path fill="#0B0B0B" style="fill: var(--color11, #0B0B0B)" d="M12.759 20.758v-9.516l8.364 4.758-8.364 4.758z"></path>
</symbol>
<symbol id="icon-facebook" viewBox="0 0 32 32">
<path d="M32 16c0-8.837-7.163-16-16-16s-16 7.163-16 16c0 7.986 5.851 14.605 13.5 15.806v-11.181h-4.063v-4.625h4.063v-3.525c0-4.010 2.389-6.225 6.043-6.225 1.75 0 3.582 0.313 3.582 0.313v3.938h-2.017c-1.988 0-2.608 1.233-2.608 2.5v3h4.438l-0.709 4.625h-3.728v11.181c7.649-1.2 13.5-7.82 13.5-15.806z"></path>
<path fill="#0B0B0B" style="fill: var(--color13, #0B0B0B)" d="M22.228 20.625l0.709-4.625h-4.438v-3c0-1.265 0.62-2.5 2.608-2.5h2.017v-3.938c0 0-1.831-0.313-3.582-0.313-3.655 0-6.043 2.215-6.043 6.225v3.525h-4.063v4.625h4.063v11.181c1.657 0.259 3.343 0.259 5 0v-11.181h3.728z"></path>
</symbol>
<symbol id="icon-telegram" viewBox="0 0 32 32">
<path d="M16 32c8.837 0 16-7.163 16-16s-7.163-16-16-16c-8.837 0-16 7.163-16 16s7.163 16 16 16z"></path>
<path fill="#0B0B0B" style="fill: var(--color13, #0B0B0B)" d="M7.242 15.831c4.664-2.032 7.775-3.372 9.331-4.019 4.443-1.848 5.367-2.169 5.968-2.18 0.132-0.002 0.428 0.030 0.62 0.186 0.162 0.131 0.206 0.309 0.228 0.433s0.048 0.408 0.027 0.63c-0.241 2.53-1.283 8.669-1.813 11.503-0.224 1.199-0.666 1.601-1.093 1.64-0.929 0.085-1.635-0.614-2.535-1.204-1.408-0.923-2.204-1.498-3.571-2.398-1.58-1.041-0.556-1.613 0.345-2.548 0.236-0.245 4.33-3.968 4.409-4.306 0.010-0.042 0.019-0.2-0.075-0.283s-0.232-0.055-0.331-0.032c-0.141 0.032-2.391 1.519-6.749 4.461-0.639 0.438-1.217 0.652-1.735 0.641-0.571-0.012-1.67-0.323-2.487-0.589-1.002-0.326-1.798-0.498-1.729-1.051 0.036-0.288 0.433-0.583 1.19-0.884z"></path>
</symbol>
<symbol id="icon-arrow-left" viewBox="0 0 32 32">
<path fill="#fe0" style="fill: var(--color1, #fe0); stroke: var(--color1, #fe0)" stroke="#fe0" stroke-linejoin="miter" stroke-linecap="butt" stroke-miterlimit="4" stroke-width="2" d="M15.106 16.447l5.244 10.488-10.936-10.936 10.936-10.935-5.468 10.935 0.224 0.447z"></path>
</symbol>
<symbol id="icon-emoji-people" viewBox="0 0 32 32">
<path fill="#fe0" style="fill: var(--color1, #fe0)" d="M12 29.333v-17.633c-2.022-0.533-3.639-1.65-4.85-3.35s-1.817-3.594-1.817-5.683h2.667c0 1.844 0.594 3.417 1.783 4.717s2.706 1.95 4.55 1.95h3.333c0.667 0 1.289 0.122 1.867 0.367s1.1 0.6 1.567 1.067l6.033 6.033-1.867 1.867-5.267-5.267v15.933h-2.667v-8h-2.667v8h-2.667zM16 8c-0.733 0-1.361-0.261-1.883-0.783s-0.783-1.15-0.783-1.883c0-0.733 0.261-1.361 0.783-1.883s1.15-0.783 1.883-0.783c0.733 0 1.361 0.261 1.883 0.783s0.783 1.15 0.783 1.883c0 0.733-0.261 1.361-0.783 1.883s-1.15 0.783-1.883 0.783z"></path>
</symbol>
<symbol id="icon-support-agent" viewBox="0 0 32 32">
<path fill="#fe0" style="fill: var(--color1, #fe0)" d="M14.667 28v-2.667h10.667v-9.467c0-2.6-0.906-4.806-2.717-6.617s-4.017-2.717-6.617-2.717c-2.6 0-4.806 0.906-6.617 2.717s-2.717 4.017-2.717 6.617v8.133h-1.333c-0.733 0-1.361-0.261-1.883-0.783s-0.783-1.15-0.783-1.883v-2.667c0-0.467 0.117-0.906 0.35-1.317s0.561-0.739 0.983-0.983l0.1-1.767c0.178-1.511 0.617-2.911 1.317-4.2s1.578-2.411 2.633-3.367c1.056-0.956 2.267-1.7 3.633-2.233s2.806-0.8 4.317-0.8c1.511 0 2.944 0.267 4.3 0.8s2.567 1.272 3.633 2.217 1.944 2.061 2.633 3.35c0.689 1.289 1.133 2.689 1.333 4.2l0.1 1.733c0.422 0.2 0.75 0.5 0.983 0.9s0.35 0.822 0.35 1.267v3.067c0 0.445-0.117 0.867-0.35 1.267s-0.561 0.7-0.983 0.9v1.633c0 0.733-0.261 1.361-0.783 1.883s-1.15 0.783-1.883 0.783h-10.667zM12 18.667c-0.378 0-0.694-0.128-0.95-0.383s-0.383-0.572-0.383-0.95c0-0.378 0.128-0.694 0.383-0.95s0.572-0.383 0.95-0.383c0.378 0 0.694 0.128 0.95 0.383s0.383 0.572 0.383 0.95c0 0.378-0.128 0.695-0.383 0.95s-0.572 0.383-0.95 0.383zM20 18.667c-0.378 0-0.695-0.128-0.95-0.383s-0.383-0.572-0.383-0.95c0-0.378 0.128-0.694 0.383-0.95s0.572-0.383 0.95-0.383c0.378 0 0.694 0.128 0.95 0.383s0.383 0.572 0.383 0.95c0 0.378-0.128 0.695-0.383 0.95s-0.572 0.383-0.95 0.383zM8.033 16.6c-0.156-2.356 0.556-4.378 2.133-6.067s3.544-2.533 5.9-2.533c1.978 0 3.717 0.628 5.217 1.883s2.405 2.861 2.717 4.817c-2.022-0.022-3.883-0.567-5.583-1.633s-3.005-2.511-3.917-4.333c-0.356 1.778-1.106 3.361-2.25 4.75s-2.55 2.428-4.217 3.117z"></path>
</symbol>
<symbol id="icon-comedy-mask" viewBox="0 0 32 32">
<path fill="#fe0" style="fill: var(--color1, #fe0)" d="M16 22.667c1.467 0 2.722-0.522 3.767-1.567s1.567-2.3 1.567-3.767h-10.667c0 1.467 0.522 2.722 1.567 3.767s2.3 1.567 3.767 1.567zM9.333 12h5.333c0-0.733-0.261-1.361-0.783-1.883s-1.15-0.783-1.883-0.783-1.361 0.261-1.883 0.783c-0.522 0.522-0.783 1.15-0.783 1.883zM17.333 12h5.333c0-0.733-0.261-1.361-0.783-1.883s-1.15-0.783-1.883-0.783-1.361 0.261-1.883 0.783c-0.522 0.522-0.783 1.15-0.783 1.883zM16 29.333c-1.667 0-3.228-0.317-4.683-0.95s-2.722-1.489-3.8-2.567c-1.078-1.078-1.933-2.344-2.567-3.8s-0.95-3.017-0.95-4.683v-14.667h24v14.667c0 1.667-0.317 3.228-0.95 4.683s-1.489 2.722-2.567 3.8c-1.078 1.078-2.344 1.933-3.8 2.567s-3.017 0.95-4.683 0.95zM16 26.667c2.578 0 4.778-0.911 6.6-2.733s2.733-4.022 2.733-6.6v-12h-18.667v12c0 2.578 0.911 4.778 2.733 6.6s4.022 2.733 6.6 2.733z"></path>
</symbol>
<symbol id="icon-task" viewBox="0 0 32 32">
<path fill="#fe0" style="fill: var(--color1, #fe0)" d="M16 29.333c-1.844 0-3.578-0.35-5.2-1.050s-3.033-1.65-4.233-2.85c-1.2-1.2-2.15-2.611-2.85-4.233s-1.050-3.356-1.050-5.2c0-1.845 0.35-3.578 1.050-5.2s1.65-3.033 2.85-4.233 2.611-2.15 4.233-2.85c1.622-0.7 3.356-1.050 5.2-1.050 1.445 0 2.811 0.211 4.1 0.633s2.478 1.011 3.567 1.767l-1.933 1.967c-0.845-0.533-1.744-0.95-2.7-1.25s-1.967-0.45-3.033-0.45c-2.955 0-5.472 1.039-7.55 3.117s-3.117 4.594-3.117 7.55c0 2.956 1.039 5.472 3.117 7.55s4.594 3.117 7.55 3.117c2.956 0 5.472-1.039 7.55-3.117s3.117-4.595 3.117-7.55c0-0.4-0.022-0.8-0.067-1.2s-0.111-0.789-0.2-1.167l2.167-2.167c0.244 0.711 0.433 1.444 0.567 2.2s0.2 1.533 0.2 2.333c0 1.844-0.35 3.578-1.050 5.2s-1.65 3.033-2.85 4.233c-1.2 1.2-2.611 2.15-4.233 2.85s-3.355 1.050-5.2 1.050zM14.133 22.133l-5.667-5.667 1.867-1.867 3.8 3.8 13.333-13.367 1.867 1.867-15.2 15.233z"></path>
</symbol>
<symbol id="icon-search" viewBox="0 0 32 32">
<path fill="#f9f3de" style="fill: var(--color14, #f9f3de)" d="M26.133 28l-8.4-8.4c-0.667 0.533-1.433 0.956-2.3 1.267s-1.789 0.467-2.767 0.467c-2.422 0-4.472-0.839-6.15-2.517s-2.517-3.728-2.517-6.15c0-2.422 0.839-4.472 2.517-6.15s3.728-2.517 6.15-2.517c2.422 0 4.472 0.839 6.15 2.517s2.517 3.728 2.517 6.15c0 0.978-0.155 1.9-0.467 2.767s-0.733 1.633-1.267 2.3l8.4 8.4-1.867 1.867zM12.667 18.667c1.667 0 3.083-0.583 4.25-1.75s1.75-2.583 1.75-4.25c0-1.667-0.583-3.083-1.75-4.25s-2.583-1.75-4.25-1.75c-1.667 0-3.083 0.583-4.25 1.75s-1.75 2.583-1.75 4.25c0 1.667 0.583 3.083 1.75 4.25s2.583 1.75 4.25 1.75z"></path>
</symbol>
<symbol id="icon-arrow-outward" viewBox="0 0 32 32">
<path fill="#fe0" style="fill: var(--color1, #fe0)" d="M8.533 24l-1.867-1.867 12.8-12.8h-11.467v-2.667h16v16h-2.667v-11.467l-12.8 12.8z"></path>
</symbol>
<symbol id="icon-mail" viewBox="0 0 32 32">
<path d="M5.333 26.667c-0.733 0-1.361-0.261-1.883-0.783s-0.783-1.15-0.783-1.883v-16c0-0.733 0.261-1.361 0.783-1.883s1.15-0.783 1.883-0.783h21.333c0.733 0 1.361 0.261 1.883 0.783s0.783 1.15 0.783 1.883v16c0 0.733-0.261 1.361-0.783 1.883s-1.15 0.783-1.883 0.783h-21.333zM16 17.333l-10.667-6.667v13.333h21.333v-13.333l-10.667 6.667zM16 14.667l10.667-6.667h-21.333l10.667 6.667zM5.333 10.667v0z"></path>
</symbol>
</defs>
</svg>
